<svg width="40" height="40" viewBox="0 0 40 40" fill="none" xmlns="http://www.w3.org/2000/svg">
<circle cx="20" cy="20" r="20" fill="#0094A8"/>
<path d="M13.7 9.48438H26.328V13.4324H17.956V16.7924C18.6 16.7364 19.244 16.7084 19.888 16.7084C25.432 16.7084 27.056 18.3884 27.056 22.8124C27.056 27.9084 25.068 29.3924 19.356 29.3924C17.508 29.3924 14.372 29.1124 12.832 28.7204L13.672 24.7164C14.708 25.0524 16.948 25.2484 18.292 25.2484C21.512 25.2484 22.128 24.8844 22.128 22.9804C22.128 21.0204 21.68 20.5724 18.32 20.5724C16.948 20.5724 14.96 20.6844 13.7 20.8524V9.48438Z" fill="white"/>
</svg>
