<svg width="40" height="40" viewBox="0 0 40 40" fill="none" xmlns="http://www.w3.org/2000/svg">
<circle cx="20" cy="20" r="20" fill="#0094A8"/>
<path d="M16.6623 21.2101V17.0701H19.8123C21.7623 17.0701 22.4523 16.6801 22.4523 15.0001C22.4523 13.4701 21.7923 12.9901 18.4023 12.9901C16.9923 12.9901 14.5923 13.2001 13.3923 13.5601L12.4923 9.33008C14.3823 8.91008 17.1423 8.58008 19.5423 8.58008C25.7223 8.58008 27.6123 10.0201 27.6123 14.0101C27.6123 16.9201 26.8623 18.6901 23.1123 18.9901C27.0723 19.1701 28.0323 21.1201 28.0323 24.3901C28.0323 28.8901 25.6023 30.4201 19.5123 30.4201C17.3223 30.4201 14.3223 30.1201 12.4023 29.7001L13.3023 25.4101C14.5023 25.7701 16.9323 25.9801 18.3723 25.9801C22.0323 25.9801 22.7523 25.4401 22.7523 23.6101C22.7523 21.7201 21.9723 21.2101 19.9023 21.2101H16.6623Z" fill="white"/>
</svg>
