<svg width="40" height="40" viewBox="0 0 40 40" fill="none" xmlns="http://www.w3.org/2000/svg">
<circle cx="20" cy="20" r="20" fill="#0094A8"/>
<path d="M20.0288 26.7238C22.2128 26.7238 22.8288 26.1358 22.8288 24.2878C22.8288 22.3838 22.1848 21.5998 20.0288 21.5998C17.8168 21.5998 17.1728 22.3838 17.1728 24.2878C17.1728 26.1358 17.8168 26.7238 20.0288 26.7238ZM20.0288 18.0998C21.8208 18.0998 22.6047 17.5398 22.6047 15.8598C22.6047 14.1518 21.8768 13.7598 20.0288 13.7598C18.1248 13.7598 17.3968 14.1518 17.3968 15.8598C17.3968 17.5398 18.1808 18.0998 20.0288 18.0998ZM20.0288 30.3918H20.0008C14.2888 30.3918 12.4688 28.8518 12.4688 24.7638C12.4688 21.7118 13.3088 19.8918 17.0328 19.7238C13.5328 19.4438 12.8328 17.7918 12.8328 15.0758C12.8328 11.5478 14.1487 10.0078 20.0008 10.0078C25.8527 10.0078 27.1688 11.5478 27.1688 15.0758C27.1688 17.7918 26.4688 19.4438 22.9688 19.7238C26.6928 19.8918 27.5328 21.7118 27.5328 24.7638C27.5328 28.8518 25.7408 30.3918 20.0288 30.3918Z" fill="white"/>
</svg>
