<svg width="40" height="40" viewBox="0 0 40 40" fill="none" xmlns="http://www.w3.org/2000/svg">
<circle cx="20" cy="20" r="20" fill="#0094A8"/>
<path d="M26.058 9.73581L25.19 13.7118C24.21 13.3758 22.362 13.1518 20.486 13.1518C17.966 13.1518 16.594 13.6838 16.454 16.9318C17.378 16.7918 18.498 16.7078 19.45 16.7078C25.05 16.7078 26.73 18.3878 26.73 22.8118C26.73 27.9358 24.826 29.3918 19.226 29.3918C13.57 29.3918 11.582 27.0398 11.582 19.0878C11.582 11.1078 13.85 9.00781 20.486 9.00781C22.278 9.00781 24.574 9.31581 26.058 9.73581ZM19.226 25.2478C21.522 25.2478 22.026 24.6318 22.026 22.9238C22.026 21.0198 21.354 20.5438 19.422 20.5438C18.414 20.5438 17.35 20.5998 16.37 20.7118C16.482 24.6598 17.294 25.2478 19.226 25.2478Z" fill="white"/>
</svg>
